# xmcd
# 
# Track frame offsets:
#     150
#     17131
#     29345
#     51922
#     62876
#     79877
#     94374
#     113535
#     130122
#     144843
#     155377
#     167298
#     177189
#     189839
#     199405
#     209855
#     248889
#     260391
#     272944
#     284316
#     309956
# 
# Disc length: 4577
# 
# Revision: 0
# Processed by: cddbd v1.5.2PL0 Copyright (c) Steve Scherf et al.
# Submitted via: fre:ac v1.0.17
# 
DISCID=2b11df15
DTITLE=Dinah Washington - The Collection [CD2]
DYEAR=2005
DGENRE=Blues
TTITLE0=The Blues Ain't Nothing (But A Woman Crying For Her Man)
TTITLE1=The Key To The Highway
TTITLE2=How Long How Long Blues
TTITLE3=Don't Come Running Back To Me
TTITLE4=If I Never Get To Heaven
TTITLE5=It's A Mean Old Man's World
TTITLE6=Me and My Gin
TTITLE7=I Wanna Be Around
TTITLE8=Make Someone Happy
TTITLE9=Take Me In Your Arms
TTITLE10=Drown In My Own Tears
TTITLE11=I Left My Heart In San Francisco
TTITLE12=The Show Must Go On
TTITLE13=What Kind Of Fool Am I
TTITLE14=Call Me Irresponsible
TTITLE15=Nobody Knows The Way I Feel This Morning
TTITLE16=The Good Life
TTITLE17=Stars Over My Shoulder
TTITLE18=Icy Stone
TTITLE19=A Stranger On Earth
TTITLE20=Data
EXTD=
EXTT0=
EXTT1=
EXTT2=
EXTT3=
EXTT4=
EXTT5=
EXTT6=
EXTT7=
EXTT8=
EXTT9=
EXTT10=
EXTT11=
EXTT12=
EXTT13=
EXTT14=
EXTT15=
EXTT16=
EXTT17=
EXTT18=
EXTT19=
EXTT20=
PLAYORDER=
